# xmcd
#
# Track frame offsets: 
#        150
#        16479
#        41099
#        60982
#        87469
#        110734
#        129546
#        149752
#        170055
#        194230
#        211211
#        227848
#        244603
#        272612
#        296905
#
# Disc length: 4337 seconds
#
# Revision: 0
# Processed by: cddbd v1.5.2PL0 Copyright (c) Steve Scherf et al.
# Submitted via: ExactAudioCopy v0.99pb4
#
DISCID=f010ef0f
DTITLE=Bryan Loren - Bryan Loren
DYEAR=1984
DGENRE=R&B
TTITLE0=Lollipop Luv
TTITLE1=Easier Said Than Done
TTITLE2=For Tonight
TTITLE3=Complications
TTITLE4=Do You Really Love Me
TTITLE5=Falling In Love
TTITLE6=Stay With Me
TTITLE7=Take All Of Me
TTITLE8=Lollipop Luv (12" Version)
TTITLE9=Do You Really Love Me (Single Version)
TTITLE10=Easier Said Than Done (Single Version)
TTITLE11=For Tonight (Single Version)
TTITLE12=Lollipop Luv (Instrumental Version)
TTITLE13=Do You Really Love Me (Instrumental)
TTITLE14=Easier Said Than Done (12" Version)
EXTD=
EXTT0=
EXTT1=
EXTT2=
EXTT3=
EXTT4=
EXTT5=
EXTT6=
EXTT7=
EXTT8=
EXTT9=
EXTT10=
EXTT11=
EXTT12=
EXTT13=
EXTT14=
PLAYORDER=
